<?xml version="1.0" encoding="UTF-8"?>
<!DOCTYPE svg PUBLIC "-//W3C//DTD SVG 1.1//EN" "http://www.w3.org/Graphics/SVG/1.1/DTD/svg11.dtd">
<svg xmlns="http://www.w3.org/2000/svg" version="1.1" width="128px" height="128px" style="shape-rendering:geometricPrecision; text-rendering:geometricPrecision; image-rendering:optimizeQuality; fill-rule:evenodd; clip-rule:evenodd" xmlns:xlink="http://www.w3.org/1999/xlink">
<g><path style="opacity:1" fill="#000000" d="M -0.5,-0.5 C 42.1667,-0.5 84.8333,-0.5 127.5,-0.5C 127.5,42.1667 127.5,84.8333 127.5,127.5C 84.8333,127.5 42.1667,127.5 -0.5,127.5C -0.5,84.8333 -0.5,42.1667 -0.5,-0.5 Z"/></g>
<g><path style="opacity:1" fill="#5f5a4f" d="M 66.5,22.5 C 77.3694,20.9618 87.3694,23.1285 96.5,29C 97.5742,29.7387 98.2409,30.7387 98.5,32C 96.05,35.0604 93.7167,38.2271 91.5,41.5C 82.7241,34.6019 73.3908,33.7686 63.5,39C 61.607,41.3031 59.607,43.4698 57.5,45.5C 53.7623,43.303 50.429,40.6363 47.5,37.5C 51.8598,29.8407 58.1931,24.8407 66.5,22.5 Z"/></g>
<g><path style="opacity:1" fill="#5d584e" d="M 46.5,40.5 C 50.711,42.5313 54.5444,45.198 58,48.5C 58.4992,53.1548 58.6658,57.8215 58.5,62.5C 54.5,62.5 50.5,62.5 46.5,62.5C 46.5,55.1667 46.5,47.8333 46.5,40.5 Z"/></g>
<g><path style="opacity:1" fill="#584d0a" d="M 101.5,55.5 C 94.1667,55.5 86.8333,55.5 79.5,55.5C 79.5,59.1667 79.5,62.8333 79.5,66.5C 78.5166,62.7016 78.1832,58.7016 78.5,54.5C 86.3516,54.1746 94.0182,54.508 101.5,55.5 Z"/></g>
<g><path style="opacity:1" fill="#d3b618" d="M 101.5,55.5 C 102.13,63.2428 101.463,70.5762 99.5,77.5C 97.1997,75.016 94.5331,73.016 91.5,71.5C 90.0582,70.1805 89.3915,68.5138 89.5,66.5C 86.1667,66.5 82.8333,66.5 79.5,66.5C 79.5,62.8333 79.5,59.1667 79.5,55.5C 86.8333,55.5 94.1667,55.5 101.5,55.5 Z"/></g>
<g><path style="opacity:1" fill="#cfb318" d="M 89.5,72.5 C 93.0781,74.0751 96.4114,76.0751 99.5,78.5C 100.598,79.6009 100.765,80.9343 100,82.5C 89.4693,95.0068 76.3026,98.8401 60.5,94C 55.9559,92.1178 51.9559,89.4511 48.5,86C 38.8777,81.5493 29.2111,81.3827 19.5,85.5C 18.5084,85.6716 17.8417,85.3382 17.5,84.5C 31.5936,68.5478 46.927,67.3811 63.5,81C 74.524,84.592 83.1907,81.7587 89.5,72.5 Z"/></g>
<g><path style="opacity:1" fill="#2e2808" d="M 89.5,72.5 C 89.8417,71.6618 90.5084,71.3284 91.5,71.5C 94.5331,73.016 97.1997,75.016 99.5,77.5C 99.5,77.8333 99.5,78.1667 99.5,78.5C 96.4114,76.0751 93.0781,74.0751 89.5,72.5 Z"/></g>
<g><path style="opacity:1" fill="#867410" d="M 17.5,84.5 C 17.8417,85.3382 18.5084,85.6716 19.5,85.5C 17.8767,86.7794 16.21,88.1128 14.5,89.5C 13.9839,87.2671 14.9839,85.6004 17.5,84.5 Z"/></g>
</svg>
